# xmcd CD database file
#
# Track frame offsets:
#	150
#	20740
#	37360
#	58052
#	81522
#	97157
#	125192
#	147807
#	162655
#	187115
#	204912
#	231295
#	259457
#	280687
#
# Disc length: 4083 seconds
#
# Revision: 0
# Processed by: cddbd v1.5.1PL0 Copyright (c) Steve Scherf et al.
# Submitted via: CDex 1.51
#
DISCID=e40ff10e
DTITLE=テニスコーツ - ぼくたちみんなだね
DYEAR=1900
DGENRE=New Age
TTITLE0=まあるいひと
TTITLE1=シーピーズ
TTITLE2=テイクミーホーム
TTITLE3=マイカー炎上
TTITLE4=花びらのインド
TTITLE5=ボールになりたい
TTITLE6=シーオブジャパン
TTITLE7=トゥリー　 オア　ノット　トゥ　ビー
TTITLE8=吾等の移動
TTITLE9=テレンパーウー
TTITLE10=ドーナッツ
TTITLE11=マレーシア
TTITLE12=ジャスト　ア　スマイル　オブ　ユー
TTITLE13=リンガンリンガンハーツ
EXTD=
EXTT0=
EXTT1=
EXTT2=
EXTT3=
EXTT4=
EXTT5=
EXTT6=
EXTT7=
EXTT8=
EXTT9=
EXTT10=
EXTT11=
EXTT12=
EXTT13=
PLAYORDER=
